<?xml version="1.0" encoding="UTF-8" standalone="no"?>
<!-- Created with Inkscape (http://www.inkscape.org/) -->

<svg
   xmlns:dc="http://purl.org/dc/elements/1.1/"
   xmlns:cc="http://creativecommons.org/ns#"
   xmlns:rdf="http://www.w3.org/1999/02/22-rdf-syntax-ns#"
   xmlns:svg="http://www.w3.org/2000/svg"
   xmlns="http://www.w3.org/2000/svg"
   xmlns:sodipodi="http://sodipodi.sourceforge.net/DTD/sodipodi-0.dtd"
   xmlns:inkscape="http://www.inkscape.org/namespaces/inkscape"
   width="4.83286mm"
   height="20.20755mm"
   viewBox="0 0 4.8328598 20.20755"
   version="1.1"
   id="svg8"
   inkscape:version="0.92.4 (5da689c313, 2019-01-14)"
   sodipodi:docname="accNeut.svg">
  <defs
     id="defs2" />
  <sodipodi:namedview
     id="base"
     pagecolor="#ffffff"
     bordercolor="#666666"
     borderopacity="1.0"
     inkscape:pageopacity="0.0"
     inkscape:pageshadow="2"
     inkscape:zoom="0.35"
     inkscape:cx="-384.45391"
     inkscape:cy="-85.353049"
     inkscape:document-units="mm"
     inkscape:current-layer="layer1"
     showgrid="false"
     inkscape:window-width="1920"
     inkscape:window-height="1017"
     inkscape:window-x="-8"
     inkscape:window-y="-8"
     inkscape:window-maximized="1" />
  <metadata
     id="metadata5">
    <rdf:RDF>
      <cc:Work
         rdf:about="">
        <dc:format>image/svg+xml</dc:format>
        <dc:type
           rdf:resource="http://purl.org/dc/dcmitype/StillImage" />
        <dc:title></dc:title>
      </cc:Work>
    </rdf:RDF>
  </metadata>
  <g
     inkscape:label="Layer 1"
     inkscape:groupmode="layer"
     id="layer1"
     transform="translate(-207.55343,-106.04279)">
    <path
       inkscape:connector-curvature="0"
       class="Accidental"
       d="m 207.55344,106.22456 c 0.22331,-0.12118 0.44715,-0.18177 0.67179,-0.18177 0.22463,0 0.44846,0.0606 0.67177,0.18177 l -0.0786,4.83288 2.8194,-0.51673 h 0.10345 c 0.30876,0 0.46301,0.14605 0.46301,0.43815 l 0.18203,15.08945 c -0.2233,0.12144 -0.44741,0.18203 -0.67204,0.18203 -0.22436,0 -0.44846,-0.0606 -0.67178,-0.18203 l 0.0786,-4.83261 -2.79055,0.51673 h -0.1032 c -0.31142,0 -0.46725,-0.14605 -0.46725,-0.43815 l -0.20664,-15.08972 m 3.59252,12.42721 0.0786,-5.47766 -2.43099,0.46725 -0.0783,5.47767 2.43073,-0.46726"
       id="path9224"
       style="stroke-width:0.26458332" />
  </g>
</svg>
