<?xml version="1.0" encoding="UTF-8" standalone="no"?>
<!-- Created with Inkscape (http://www.inkscape.org/) -->

<svg
   xmlns:dc="http://purl.org/dc/elements/1.1/"
   xmlns:cc="http://creativecommons.org/ns#"
   xmlns:rdf="http://www.w3.org/1999/02/22-rdf-syntax-ns#"
   xmlns:svg="http://www.w3.org/2000/svg"
   xmlns="http://www.w3.org/2000/svg"
   xmlns:sodipodi="http://sodipodi.sourceforge.net/DTD/sodipodi-0.dtd"
   xmlns:inkscape="http://www.inkscape.org/namespaces/inkscape"
   width="16.610781mm"
   height="47.262554mm"
   viewBox="0 0 16.610779 47.262555"
   version="1.1"
   id="svg8"
   inkscape:version="0.92.4 (5da689c313, 2019-01-14)"
   sodipodi:docname="clefTreble.svg">
  <defs
     id="defs2" />
  <sodipodi:namedview
     id="base"
     pagecolor="#ffffff"
     bordercolor="#666666"
     borderopacity="1.0"
     inkscape:pageopacity="0.0"
     inkscape:pageshadow="2"
     inkscape:zoom="15.839192"
     inkscape:cx="50.831188"
     inkscape:cy="98.508187"
     inkscape:document-units="mm"
     inkscape:current-layer="layer1"
     showgrid="false"
     inkscape:window-width="1920"
     inkscape:window-height="1017"
     inkscape:window-x="-8"
     inkscape:window-y="-8"
     inkscape:window-maximized="1" />
  <metadata
     id="metadata5">
    <rdf:RDF>
      <cc:Work
         rdf:about="">
        <dc:format>image/svg+xml</dc:format>
        <dc:type
           rdf:resource="http://purl.org/dc/dcmitype/StillImage" />
        <dc:title></dc:title>
      </cc:Work>
    </rdf:RDF>
  </metadata>
  <g
     inkscape:label="Layer 1"
     inkscape:groupmode="layer"
     id="layer1"
     transform="translate(-72.757771,-93.049587)">
    <path
       inkscape:connector-curvature="0"
       class="Clef"
       d="m 82.419001,117.13198 c 0,0 0.0524,0 0.15717,0 0.0691,-0.0159 0.12806,-0.0238 0.1778,-0.0238 1.92934,0 3.51393,0.67998 4.75429,2.03994 1.24011,1.34408 1.86029,2.91041 1.86029,4.70164 0,2.22515 -0.92049,4.03225 -2.76172,5.42925 -0.48207,0.37836 -1.11204,0.69056 -1.88913,0.92869 0.0881,1.11919 0.1323,2.02406 0.1323,2.71198 0,0.13758 -0.018,0.63764 -0.0537,1.50019 -0.0691,1.60337 -0.62019,2.98714 -1.65365,4.15925 -0.99774,1.15622 -2.23811,1.73302 -3.72084,1.73302 -1.39461,0 -2.58233,-0.49213 -3.56367,-1.47109 -0.98372,-1.00012 -1.47584,-2.20662 -1.47584,-3.6195 0,-0.74083 0.28522,-1.37054 0.85592,-1.88912 0.5842,-0.51329 1.26365,-0.77259 2.03809,-0.77259 0.68897,0 1.26629,0.26723 1.73223,0.80169 0.48233,0.50006 0.72337,1.11919 0.72337,1.86002 0,0.67204 -0.24104,1.24619 -0.72337,1.73038 -0.48234,0.48154 -1.05966,0.72231 -1.73223,0.72231 -0.2757,0 -0.5416,-0.0503 -0.79799,-0.15346 0.75804,1.11919 1.7653,1.68011 3.02208,1.68011 1.18797,0 2.16085,-0.48419 2.91861,-1.44727 0.79375,-0.99748 1.22529,-2.16165 1.29408,-3.48986 0.0331,-0.82814 0.0495,-1.2991 0.0495,-1.41817 0,-0.96572 -0.0344,-1.75683 -0.10319,-2.37595 -0.85989,0.13758 -1.62613,0.20637 -2.2987,0.20637 -2.39501,0 -4.43574,-0.94985 -6.12246,-2.84427 -1.65364,-1.91294 -2.48047,-4.18835 -2.48047,-6.82096 0,-0.55298 0.0508,-1.11125 0.15293,-1.6801 0.10478,-0.46567 0.23416,-0.97367 0.38868,-1.524 0.0855,-0.31221 0.31829,-0.81227 0.6985,-1.50284 0.13784,-0.20637 0.29289,-0.46302 0.46513,-0.77522 0.17225,-0.30957 0.2929,-0.51594 0.36169,-0.61648 0.17092,-0.34396 0.50588,-0.80963 1.00462,-1.397 0.13785,-0.15611 0.28046,-0.32544 0.42783,-0.51594 0.14764,-0.18786 0.27305,-0.34396 0.37624,-0.46567 0.10345,-0.11906 0.18045,-0.21431 0.23151,-0.2831 0.0511,-0.0688 0.43894,-0.52652 1.1639,-1.37054 0.17066,-0.17198 0.33814,-0.35719 0.50218,-0.55563 0.16404,-0.19579 0.29766,-0.35189 0.40111,-0.46302 0.10319,-0.11377 0.18124,-0.19579 0.23336,-0.24606 -0.61992,-2.05052 -1.00859,-3.68565 -1.16575,-4.91067 -0.11853,-0.9816 -0.1778,-2.32569 -0.1778,-4.0296 0,-1.500193 0.34449,-2.905133 1.03373,-4.214823 0.66966,-1.35731 1.60813,-2.46856 2.81516,-3.3311 0.0691,-0.0529 0.15452,-0.0794 0.25638,-0.0794 0.12118,0 0.20797,0.0264 0.26035,0.0794 0.92896,1.11919 1.72959,2.5744 2.40189,4.36563 0.68924,1.79122 1.03373,3.421063 1.03373,4.886853 0,1.65365 -0.39555,3.2041 -1.18666,4.65137 -0.89561,1.53194 -2.05052,3.1168 -3.46419,4.75457 0.36089,1.13506 0.84323,2.91571 1.44674,5.34458 m 2.19525,12.01738 c 0.89588,-0.32809 1.59438,-0.88636 2.09603,-1.67746 0.55113,-0.75936 0.82682,-1.61132 0.82682,-2.55852 0,-1.22502 -0.41327,-2.30982 -1.2401,-3.25967 -0.84614,-0.9816 -1.92378,-1.53194 -3.23294,-1.65365 0.74136,3.63538 1.25809,6.68602 1.55019,9.1493 m -9.99622,-5.969 c 0,1.70656 0.68897,3.2041 2.06692,4.49791 1.41129,1.25677 2.99588,1.88384 4.7543,1.88384 0.72205,0 1.42769,-0.0503 2.11667,-0.15611 -0.27543,-2.61937 -0.81862,-5.75204 -1.62878,-9.40594 -0.98107,0.10584 -1.76397,0.4498 -2.34817,1.03452 -0.57044,0.60325 -0.85567,1.28323 -0.85567,2.04259 0,1.30969 0.6985,2.36802 2.09577,3.17764 0.11853,0.12171 0.1778,0.25136 0.1778,0.38894 0,0.13758 -0.0593,0.26723 -0.1778,0.38629 -0.10451,0.11907 -0.23416,0.17992 -0.38841,0.17992 -0.0167,0 -0.0937,-0.0159 -0.23151,-0.0476 -0.98399,-0.5371 -1.74202,-1.22502 -2.27383,-2.06904 -0.50165,-0.89693 -0.75247,-1.80181 -0.75247,-2.71462 0,-1.18798 0.37068,-2.26484 1.11204,-3.23056 0.77444,-0.96309 1.78197,-1.58486 3.02207,-1.86003 -0.48233,-1.92881 -0.87762,-3.43693 -1.18639,-4.52172 -0.2757,0.3122 -0.60696,0.68527 -0.99431,1.12447 -0.38735,0.43921 -0.61515,0.70115 -0.68421,0.78846 -0.62018,0.80963 -1.09405,1.43669 -1.42213,1.88648 -0.58711,0.80963 -1.01838,1.50813 -1.29408,2.09286 -0.2921,0.65352 -0.5498,1.37054 -0.77285,2.14312 -0.22331,0.74348 -0.33496,1.53458 -0.33496,2.37861 m 8.6278,-26.275783 c -1.29249,0.635 -2.30823,1.54782 -3.04668,2.7358 -0.75803,1.225023 -1.13691,2.540003 -1.13691,3.952873 0,1.2409 0.31009,2.91042 0.93001,5.01386 1.24036,-1.50019 2.17064,-2.88661 2.79056,-4.15925 0.65325,-1.34409 0.97975,-2.74903 0.97975,-4.21217 0,-1.103313 -0.17225,-2.211923 -0.51673,-3.331113"
       id="path5199"
       style="stroke-width:0.26458332" />
  </g>
</svg>
