<?xml version="1.0" encoding="UTF-8" standalone="no"?>
<!-- Created with Inkscape (http://www.inkscape.org/) -->

<svg
   xmlns:dc="http://purl.org/dc/elements/1.1/"
   xmlns:cc="http://creativecommons.org/ns#"
   xmlns:rdf="http://www.w3.org/1999/02/22-rdf-syntax-ns#"
   xmlns:svg="http://www.w3.org/2000/svg"
   xmlns="http://www.w3.org/2000/svg"
   xmlns:sodipodi="http://sodipodi.sourceforge.net/DTD/sodipodi-0.dtd"
   xmlns:inkscape="http://www.inkscape.org/namespaces/inkscape"
   width="17.751959mm"
   height="20.51314mm"
   viewBox="0 0 17.751957 20.51314"
   version="1.1"
   id="svg8"
   inkscape:version="0.92.4 (5da689c313, 2019-01-14)"
   sodipodi:docname="clefBass.svg">
  <defs
     id="defs2" />
  <sodipodi:namedview
     id="base"
     pagecolor="#ffffff"
     bordercolor="#666666"
     borderopacity="1.0"
     inkscape:pageopacity="0.0"
     inkscape:pageshadow="2"
     inkscape:zoom="15.839192"
     inkscape:cx="44.631417"
     inkscape:cy="37.351121"
     inkscape:document-units="mm"
     inkscape:current-layer="layer1"
     showgrid="false"
     inkscape:window-width="1920"
     inkscape:window-height="1017"
     inkscape:window-x="-8"
     inkscape:window-y="-8"
     inkscape:window-maximized="1" />
  <metadata
     id="metadata5">
    <rdf:RDF>
      <cc:Work
         rdf:about="">
        <dc:format>image/svg+xml</dc:format>
        <dc:type
           rdf:resource="http://purl.org/dc/dcmitype/StillImage" />
        <dc:title></dc:title>
      </cc:Work>
    </rdf:RDF>
  </metadata>
  <g
     inkscape:label="Layer 1"
     inkscape:groupmode="layer"
     id="layer1"
     transform="translate(-74.398127,-103.61786)">
    <path
       inkscape:connector-curvature="0"
       class="Clef"
       d="m 89.849265,108.21367 c -0.25771,-0.25929 -0.38656,-0.57679 -0.38656,-0.95515 0,-0.381 0.12885,-0.6985 0.38656,-0.95514 0.2577,-0.25929 0.576,-0.38629 0.95514,-0.38629 0.37889,0 0.69798,0.127 0.957,0.38629 0.25903,0.25664 0.38868,0.57414 0.38868,0.95514 0,0.37836 -0.12965,0.69586 -0.38868,0.95515 -0.25902,0.25929 -0.57811,0.38894 -0.957,0.38894 -0.37914,0 -0.69744,-0.12965 -0.95514,-0.38894 m 0,6.61723 c -0.25771,-0.25665 -0.38656,-0.57679 -0.38656,-0.95515 0,-0.37835 0.12885,-0.6985 0.38656,-0.95779 0.2577,-0.25929 0.576,-0.38629 0.95514,-0.38629 0.37889,0 0.69798,0.127 0.957,0.38629 0.25903,0.25929 0.38868,0.57944 0.38868,0.95779 0,0.37836 -0.12965,0.6985 -0.38868,0.95515 -0.25902,0.25664 -0.57811,0.38629 -0.957,0.38629 -0.37914,0 -0.69744,-0.12965 -0.95514,-0.38629 m -8.964608,-11.21304 c 2.29023,0 4.16718,0.57414 5.63059,1.72773 1.413938,1.2065 2.120638,2.84427 2.120638,4.91066 0,1.39436 -0.27543,2.66965 -0.82682,3.82323 -0.518058,1.20915 -1.198828,2.27542 -2.042058,3.20411 -0.8628,0.94985 -1.90447,1.84414 -3.12552,2.68816 -1.19063,0.82815 -2.41432,1.56898 -3.67109,2.22515 -2.56593,1.28852 -3.97828,1.9341 -4.23731,1.9341 -0.2233,0 -0.33496,-0.11112 -0.33496,-0.33602 0,-0.0847 0.0344,-0.16139 0.10345,-0.23019 0.87921,-0.51858 1.95527,-1.18268 3.22871,-1.98966 0.82683,-0.53446 1.7915,-1.27529 2.89375,-2.2225 1.06945,-0.89694 1.89627,-1.74096 2.48047,-2.53206 0.60351,-0.77523 1.15491,-1.74096 1.65365,-2.8919 0.42994,-1.15623 0.64505,-2.29394 0.64505,-3.41577 0,-1.66952 -0.41354,-3.12473 -1.24037,-4.36563 -0.82682,-1.24089 -1.91955,-1.86002 -3.27818,-1.86002 -0.96467,0 -1.7915,0.30957 -2.48047,0.92869 -0.74137,0.63765 -1.27609,1.43933 -1.60417,2.40242 0.32808,-0.13759 0.62971,-0.20638 0.9054,-0.20638 0.72205,0 1.34223,0.25929 1.86029,0.77788 0.51541,0.55033 0.77311,1.18004 0.77311,1.88383 0,0.74348 -0.2495,1.40758 -0.74824,1.99496 -0.53472,0.53181 -1.16311,0.79639 -1.88516,0.79639 -0.77443,0 -1.47187,-0.26458 -2.09179,-0.79639 -0.58711,-0.58738 -0.88054,-1.25148 -0.88054,-1.99496 0,-1.77271 0.60352,-3.28877 1.81055,-4.54554 1.18798,-1.27529 2.63498,-1.91029 4.34102,-1.91029"
       id="path5201"
       style="stroke-width:0.26458332" />
  </g>
</svg>
