<?xml version="1.0" encoding="UTF-8" standalone="no"?>
<!-- Created with Inkscape (http://www.inkscape.org/) -->

<svg
   xmlns:dc="http://purl.org/dc/elements/1.1/"
   xmlns:cc="http://creativecommons.org/ns#"
   xmlns:rdf="http://www.w3.org/1999/02/22-rdf-syntax-ns#"
   xmlns:svg="http://www.w3.org/2000/svg"
   xmlns="http://www.w3.org/2000/svg"
   xmlns:sodipodi="http://sodipodi.sourceforge.net/DTD/sodipodi-0.dtd"
   xmlns:inkscape="http://www.inkscape.org/namespaces/inkscape"
   width="6.3579402mm"
   height="23.20476mm"
   viewBox="0 0 6.3579396 23.204758"
   version="1.1"
   id="svg8"
   inkscape:version="0.92.4 (5da689c313, 2019-01-14)"
   sodipodi:docname="flag16.svg">
  <defs
     id="defs2" />
  <sodipodi:namedview
     id="base"
     pagecolor="#ffffff"
     bordercolor="#666666"
     borderopacity="1.0"
     inkscape:pageopacity="0.0"
     inkscape:pageshadow="2"
     inkscape:zoom="0.35"
     inkscape:cx="380.40553"
     inkscape:cy="-348.81642"
     inkscape:document-units="mm"
     inkscape:current-layer="layer1"
     showgrid="false"
     inkscape:window-width="1920"
     inkscape:window-height="1017"
     inkscape:window-x="-8"
     inkscape:window-y="-8"
     inkscape:window-maximized="1" />
  <metadata
     id="metadata5">
    <rdf:RDF>
      <cc:Work
         rdf:about="">
        <dc:format>image/svg+xml</dc:format>
        <dc:type
           rdf:resource="http://purl.org/dc/dcmitype/StillImage" />
        <dc:title></dc:title>
      </cc:Work>
    </rdf:RDF>
  </metadata>
  <g
     inkscape:label="Layer 1"
     inkscape:groupmode="layer"
     id="layer1"
     transform="translate(-5.1843696,-33.337563)">
    <path
       inkscape:connector-curvature="0"
       class="Hook"
       d="m 6.0098696,33.337563 c 0,0.87921 0.1905,1.75842 0.5715,2.63764 0.35984,0.85989 0.80698,1.67719 1.34409,2.45162 l 1.55046,2.27357 c 0.51329,0.70829 0.9630804,1.52691 1.3414304,2.45586 0.37836,0.86254 0.56621,1.73223 0.56621,2.60853 0,0.81042 -0.20637,1.65497 -0.61912,2.53418 0.51858,1.05013 0.77787,2.07539 0.77787,3.07578 0,1.58485 -0.37042,3.2041 -1.11389,4.85775 -0.13759,0.20664 -0.30163,0.30983 -0.4894804,0.30983 -0.17198,0 -0.32544,-0.0688 -0.46302,-0.20664 -0.10584,-0.10478 -0.15875,-0.23416 -0.15875,-0.38868 0,0 0,-0.0426 0,-0.12806 0.7408304,-1.46632 1.1112504,-2.94772 1.1112504,-4.4442 0,-0.67257 -0.12965,-1.29249 -0.3863,-1.86029 -0.3095604,-0.67257 -0.6879104,-1.29275 -1.1377004,-1.86028 -0.56886,-0.74136 -1.016,-1.27609 -1.34409,-1.60417 -0.44714,-0.44635 -0.96308,-0.93716 -1.55046,-1.47161 v 1.98834 h -0.8255 v -13.22917 h 0.8255 m 4.0560704,13.66758 c 0.1217,-0.36115 0.18256,-0.7747 0.18256,-1.24036 0,-0.60087 -0.12171,-1.21126 -0.3598304,-1.83145 -0.2593,-0.62018 -0.62178,-1.24989 -1.08744,-1.88912 -0.43127,-0.53208 -0.87048,-1.05701 -1.32027,-1.57533 -0.34396,-0.37756 -0.83344,-0.8763 -1.47109,-1.49648 0,0.70564 0.14552,1.45388 0.43921,2.24498 0.30956,0.74137 0.62971,1.38748 0.95779,1.93887 0.37836,0.58685 0.84138,1.25042 1.39436,1.99046 0.55033,0.74004 0.97366,1.35943 1.2647104,1.85843"
       id="path9992"
       style="stroke-width:0.26458332" />
  </g>
</svg>
