<?xml version="1.0" encoding="iso-8859-1"?>
<!-- Generator: Adobe Illustrator 19.0.0, SVG Export Plug-In . SVG Version: 6.00 Build 0)  -->
<svg version="1.1" id="Layer_1" xmlns="http://www.w3.org/2000/svg" xmlns:xlink="http://www.w3.org/1999/xlink" x="0px" y="0px"
	 viewBox="0 0 297 297" style="enable-background:new 0 0 297 297;" xml:space="preserve">
<g>
	<g>
		<g>
			<g>
				<g>
					<g>
						<circle style="fill:#F0D3A7;" cx="148.5" cy="148.5" r="148.5"/>
					</g>
				</g>
			</g>
		</g>
	</g>
	<path style="fill:#D6B68B;" d="M180.415,35.59L86.017,244.759l51.859,51.858c3.51,0.248,7.051,0.382,10.624,0.382
		c80.801,0,146.526-64.533,148.454-144.87L180.415,35.59z"/>
	<g>
		<path style="fill:#5E4534;" d="M92.143,247.5h112.714c5.07,0,8.948-4.52,8.177-9.531L182.579,40.015
			c-0.621-4.036-4.093-7.015-8.177-7.015h-51.805c-4.083,0-7.556,2.979-8.177,7.015L83.966,237.969
			C83.195,242.98,87.073,247.5,92.143,247.5z"/>
	</g>
	<g>
		<path style="fill:#503B2C;" d="M213.034,237.969L182.579,40.015c-0.621-4.036-4.094-7.015-8.177-7.015h-25.235v214.5h55.69
			C209.927,247.5,213.805,242.98,213.034,237.969z"/>
	</g>
	<g>
		<path style="fill:#F86E51;" d="M116.707,67.034l-12.319,80.076c-0.467,3.032,1.88,5.767,4.948,5.767h78.33
			c3.068,0,5.414-2.735,4.948-5.767l-12.319-80.076c-0.376-2.442-2.477-4.245-4.948-4.245h-53.691
			C119.184,62.789,117.082,64.592,116.707,67.034z"/>
	</g>
	<g>
		<path style="fill:#E04332;" d="M192.613,147.11l-12.319-80.076c-0.376-2.442-2.477-4.245-4.948-4.245h-26.179v90.088h38.498
			C190.733,152.877,193.079,150.143,192.613,147.11z"/>
	</g>
	<g>
		<rect x="140.25" y="66" style="fill:#ECF0F1;" width="16.5" height="82.5"/>
	</g>
	<g>
		<rect x="149.167" y="66" style="fill:#BDC3C7;" width="7.583" height="82.5"/>
	</g>
	<g>
		<path style="fill:#32373B;" d="M148.502,149.25c-1.026,0-2.044-0.449-2.735-1.313l-66-82.5c-1.207-1.51-0.963-3.712,0.547-4.92
			c1.51-1.206,3.712-0.963,4.92,0.547l66,82.5c1.207,1.51,0.963,3.712-0.547,4.92C150.041,148.999,149.269,149.25,148.502,149.25z"
			/>
	</g>
	<g>
		<path style="fill:#32373B;" d="M92.5,84c-4.687,0-8.5-3.813-8.5-8.5s3.813-8.5,8.5-8.5s8.5,3.813,8.5,8.5S97.187,84,92.5,84z
			 M92.5,74c-0.827,0-1.5,0.673-1.5,1.5s0.673,1.5,1.5,1.5s1.5-0.673,1.5-1.5S93.327,74,92.5,74z"/>
	</g>
</g>
<g>
</g>
<g>
</g>
<g>
</g>
<g>
</g>
<g>
</g>
<g>
</g>
<g>
</g>
<g>
</g>
<g>
</g>
<g>
</g>
<g>
</g>
<g>
</g>
<g>
</g>
<g>
</g>
<g>
</g>
</svg>
