<?xml version="1.0" encoding="UTF-8" standalone="no"?>
<!-- Created with Inkscape (http://www.inkscape.org/) -->

<svg
   xmlns:dc="http://purl.org/dc/elements/1.1/"
   xmlns:cc="http://creativecommons.org/ns#"
   xmlns:rdf="http://www.w3.org/1999/02/22-rdf-syntax-ns#"
   xmlns:svg="http://www.w3.org/2000/svg"
   xmlns="http://www.w3.org/2000/svg"
   xmlns:sodipodi="http://sodipodi.sourceforge.net/DTD/sodipodi-0.dtd"
   xmlns:inkscape="http://www.inkscape.org/namespaces/inkscape"
   width="171.45mm"
   height="181.76875mm"
   viewBox="0 0 171.45 181.76874"
   version="1.1"
   id="svg8"
   sodipodi:docname="midiRefresh.svg"
   inkscape:version="0.92.4 (5da689c313, 2019-01-14)">
  <defs
     id="defs2" />
  <sodipodi:namedview
     id="base"
     pagecolor="#ffffff"
     bordercolor="#666666"
     borderopacity="1.0"
     inkscape:pageopacity="0.0"
     inkscape:pageshadow="2"
     inkscape:zoom="0.70710678"
     inkscape:cx="-63.031178"
     inkscape:cy="502.37623"
     inkscape:document-units="mm"
     inkscape:current-layer="layer1"
     showgrid="false"
     inkscape:pagecheckerboard="true"
     inkscape:window-width="1920"
     inkscape:window-height="1017"
     inkscape:window-x="1912"
     inkscape:window-y="-8"
     inkscape:window-maximized="1" />
  <metadata
     id="metadata5">
    <rdf:RDF>
      <cc:Work
         rdf:about="">
        <dc:format>image/svg+xml</dc:format>
        <dc:type
           rdf:resource="http://purl.org/dc/dcmitype/StillImage" />
        <dc:title></dc:title>
      </cc:Work>
    </rdf:RDF>
  </metadata>
  <g
     inkscape:label="Layer 1"
     inkscape:groupmode="layer"
     id="layer1"
     transform="translate(-213.3495,-178.70326)">
    <path
       style="fill:#4a85c4;stroke-width:0.26458332"
       d="m 290.60783,357.78714 c -10.16036,-0.93651 -21.98178,-4.31558 -31.07946,-8.88384 -7.12208,-3.57625 -14.74901,-8.83539 -20.1829,-13.91711 -1.19437,-1.11697 -2.33537,-2.03085 -2.53554,-2.03085 -0.20017,0 -1.69667,2.00608 -3.32555,4.45796 -1.62888,2.45187 -3.34301,4.82709 -3.80918,5.27825 -1.14006,1.10338 -2.52792,1.64207 -4.21251,1.63507 -1.74654,-0.007 -3.26559,-0.6811 -4.36935,-1.93821 -1.69245,-1.9276 -1.65147,-1.11171 -1.44403,-28.74765 l 0.18767,-25.00313 0.57713,-1.08338 c 1.22727,-2.30381 3.42871,-3.47297 6.03227,-3.20366 0.99135,0.10254 6.89323,2.63992 23.54791,10.12385 12.22375,5.49286 22.60365,10.26615 23.06645,10.60731 2.61719,1.92933 3.18452,5.44464 1.32624,8.21756 -1.23957,1.84968 -2.3006,2.30645 -7.15759,3.08132 -2.30789,0.3682 -4.25962,0.73291 -4.33718,0.81048 -0.84605,0.84605 10.56728,7.37372 16.47083,9.42023 7.60222,2.63536 15.76428,3.74557 23.38641,3.18103 4.40583,-0.32631 7.42584,-0.7804 10.74484,-1.61557 10.55581,-2.65621 19.55833,-7.64835 27.28695,-15.13136 5.67917,-5.49868 9.43023,-10.71602 13.1813,-18.3338 2.02552,-4.11349 2.54878,-4.95462 3.96054,-6.36637 4.26424,-4.26424 10.70385,-5.28846 16.25844,-2.5859 1.71945,0.83659 4.43516,3.32617 5.58799,5.1227 1.49799,2.3344 1.93748,4.02818 1.95778,7.54515 0.0172,2.98366 -0.033,3.30255 -0.8341,5.29166 -1.32678,3.29455 -4.25247,8.92142 -6.60337,12.7 -6.15698,9.8961 -14.92382,19.16852 -24.22764,25.62482 -13.05034,9.05617 -26.96553,14.15858 -43.01207,15.77163 -3.20362,0.32203 -12.82151,0.30555 -16.44228,-0.0282 z M 226.76158,254.2416 c -4.49025,-1.23441 -8.27138,-4.75767 -9.75799,-9.09249 -0.86453,-2.52089 -0.86038,-6.85428 0.009,-9.29585 0.95736,-2.68896 4.48531,-9.57714 6.84339,-13.36146 6.17988,-9.91767 14.9283,-19.16933 24.23093,-25.62481 13.05871,-9.06198 26.95524,-14.15755 43.01207,-15.77163 3.50681,-0.35251 11.98478,-0.353 15.91311,-9.1e-4 10.65573,0.95505 22.29875,4.23812 31.60863,8.91294 7.16335,3.59697 15.12237,9.09729 20.24311,13.98961 1.12737,1.07709 2.22741,1.95834 2.44452,1.95834 0.21715,0 1.72724,-2.00571 3.35636,-4.45795 1.62888,-2.45188 3.34301,-4.82709 3.80918,-5.27826 3.55628,-3.44185 9.43842,-1.30737 10.07786,3.65701 0.0839,0.65142 0.0645,12.25722 -0.0431,25.79066 -0.19563,24.60465 -0.19568,24.60632 -0.77323,25.68964 -1.22851,2.30427 -3.42956,3.47308 -6.03274,3.20351 -0.99062,-0.10258 -6.93867,-2.65831 -23.6802,-10.17479 -20.02744,-8.99176 -22.48282,-10.15949 -23.56184,-11.20551 -2.71141,-2.6285 -2.30386,-7.01452 0.84809,-9.12702 1.06727,-0.71531 1.77365,-0.908 5.5133,-1.50392 2.35905,-0.37592 4.35368,-0.74799 4.43252,-0.82682 0.84493,-0.84494 -10.57772,-7.38045 -16.46853,-9.42254 -5.34062,-1.85137 -10.14061,-2.78265 -17.06563,-3.31102 -2.55873,-0.19524 -9.28159,0.24104 -12.67078,0.82225 -11.92897,2.0457 -23.0194,7.62524 -31.47968,15.83726 -5.77831,5.60875 -9.67518,11.00778 -13.37739,18.5341 -2.03331,4.13357 -2.55301,4.96993 -3.96656,6.38348 -2.6981,2.69811 -6.18504,4.09431 -10.11357,4.0496 -1.14316,-0.013 -2.65101,-0.18105 -3.35077,-0.37342 z"
       id="path3839"
       inkscape:connector-curvature="0" />
  </g>
</svg>
