<?xml version="1.0" encoding="iso-8859-1"?>
<!-- Generator: Adobe Illustrator 18.1.1, SVG Export Plug-In . SVG Version: 6.00 Build 0)  -->
<svg version="1.1" id="Capa_1" xmlns="http://www.w3.org/2000/svg" xmlns:xlink="http://www.w3.org/1999/xlink" x="0px" y="0px"
	 viewBox="0 0 282.376 282.376" style="enable-background:new 0 0 282.376 282.376;" xml:space="preserve">
<g>
	<g>
		<path style="fill:#010002;" d="M185.194,149.894c0-22.239-16.594-40.628-38.039-43.552V0h-11.934v106.342
			c-21.445,2.924-38.039,21.314-38.039,43.552s16.594,40.628,38.039,43.552v88.93h11.934v-88.93
			C168.6,190.522,185.194,172.132,185.194,149.894z"/>
		<path style="fill:#010002;" d="M261.271,203.596c0-22.239-16.594-40.628-38.039-43.552V0h-11.934v160.043
			c-21.445,2.924-38.039,21.314-38.039,43.552s16.594,40.628,38.039,43.552v35.228h11.934v-35.228
			C244.677,244.224,261.271,225.834,261.271,203.596z"/>
		<path style="fill:#010002;" d="M109.116,72.324c0-22.239-16.594-40.628-38.039-43.552V0H59.144v28.772
			c-21.445,2.924-38.039,21.314-38.039,43.552s16.594,40.628,38.039,43.552v166.5h11.934v-166.5
			C92.522,112.953,109.116,94.563,109.116,72.324z"/>
	</g>
</g>
<g>
</g>
<g>
</g>
<g>
</g>
<g>
</g>
<g>
</g>
<g>
</g>
<g>
</g>
<g>
</g>
<g>
</g>
<g>
</g>
<g>
</g>
<g>
</g>
<g>
</g>
<g>
</g>
<g>
</g>
</svg>
