<?xml version="1.0" encoding="UTF-8" standalone="no"?>
<!-- Created with Inkscape (http://www.inkscape.org/) -->

<svg
   xmlns:dc="http://purl.org/dc/elements/1.1/"
   xmlns:cc="http://creativecommons.org/ns#"
   xmlns:rdf="http://www.w3.org/1999/02/22-rdf-syntax-ns#"
   xmlns:svg="http://www.w3.org/2000/svg"
   xmlns="http://www.w3.org/2000/svg"
   xmlns:sodipodi="http://sodipodi.sourceforge.net/DTD/sodipodi-0.dtd"
   xmlns:inkscape="http://www.inkscape.org/namespaces/inkscape"
   width="9.1982403mm"
   height="7.284236mm"
   viewBox="0 0 9.1982393 7.2842361"
   version="1.1"
   id="svg8"
   inkscape:version="0.92.4 (5da689c313, 2019-01-14)"
   sodipodi:docname="noteHalf.svg">
  <defs
     id="defs2" />
  <sodipodi:namedview
     id="base"
     pagecolor="#ffffff"
     bordercolor="#666666"
     borderopacity="1.0"
     inkscape:pageopacity="0.0"
     inkscape:pageshadow="2"
     inkscape:zoom="0.35"
     inkscape:cx="427.69256"
     inkscape:cy="-171.10647"
     inkscape:document-units="mm"
     inkscape:current-layer="layer1"
     showgrid="false"
     inkscape:window-width="1920"
     inkscape:window-height="1017"
     inkscape:window-x="-8"
     inkscape:window-y="-8"
     inkscape:window-maximized="1" />
  <metadata
     id="metadata5">
    <rdf:RDF>
      <cc:Work
         rdf:about="">
        <dc:format>image/svg+xml</dc:format>
        <dc:type
           rdf:resource="http://purl.org/dc/dcmitype/StillImage" />
        <dc:title></dc:title>
      </cc:Work>
    </rdf:RDF>
  </metadata>
  <g
     inkscape:label="Layer 1"
     inkscape:groupmode="layer"
     id="layer1"
     transform="translate(7.3269862,-96.277174)">
    <path
       inkscape:connector-curvature="0"
       class="Note"
       d="m 1.0198238,98.186934 c 0,-0.2921 -0.11164999,-0.54134 -0.33495999,-0.74824 -0.22595,-0.22305 -0.48498,-0.3347 -0.77708,-0.3347 -0.51541,0 -1.55734001,0.51673 -3.12552001,1.55019 -1.62057,1.05013 -2.61144,1.799696 -2.97233,2.248956 -0.19024,0.23971 -0.28522,0.48922 -0.28522,0.74824 0,0.2921 0.11298,0.5416 0.33893,0.74824 0.20664,0.22331 0.46434,0.33497 0.77311,0.33497 0.49874,0 1.5502,-0.51673 3.15436,-1.5502 1.58459001,-1.03372 2.56567001,-1.783286 2.94349001,-2.248956 0.18997,-0.2233 0.28521999,-0.47281 0.28521999,-0.7485 m -1.36841999,-1.90976 c 1.48007999,0 2.21984999,0.63658 2.21984999,1.90976 0,0.62018 -0.18044,1.34382 -0.54133,2.170636 -0.36115999,0.81015 -0.84349999,1.43034 -1.44700999,1.86029 -1.32583001,0.89561 -2.98767001,1.34355 -4.98581001,1.34355 -1.48272,0 -2.22409,-0.63659 -2.22409,-1.91003 0,-0.56779 0.18045,-1.28296 0.54161,-2.145496 0.34448,-0.82683 0.82682,-1.45521 1.44674,-1.88516 1.32847,-0.89588 2.99191,-1.34355 4.99004001,-1.34355"
       id="path9830"
       style="stroke-width:0.26458332" />
  </g>
</svg>
