<?xml version="1.0" encoding="UTF-8" standalone="no"?>
<!-- Created with Inkscape (http://www.inkscape.org/) -->

<svg
   xmlns:dc="http://purl.org/dc/elements/1.1/"
   xmlns:cc="http://creativecommons.org/ns#"
   xmlns:rdf="http://www.w3.org/1999/02/22-rdf-syntax-ns#"
   xmlns:svg="http://www.w3.org/2000/svg"
   xmlns="http://www.w3.org/2000/svg"
   xmlns:sodipodi="http://sodipodi.sourceforge.net/DTD/sodipodi-0.dtd"
   xmlns:inkscape="http://www.inkscape.org/namespaces/inkscape"
   width="13.10111mm"
   height="7.2842412mm"
   viewBox="0 0 13.10111 7.2842412"
   version="1.1"
   id="svg8"
   inkscape:version="0.92.4 (5da689c313, 2019-01-14)"
   sodipodi:docname="noteWhole.svg">
  <defs
     id="defs2" />
  <sodipodi:namedview
     id="base"
     pagecolor="#ffffff"
     bordercolor="#666666"
     borderopacity="1.0"
     inkscape:pageopacity="0.0"
     inkscape:pageshadow="2"
     inkscape:zoom="0.35"
     inkscape:cx="-44.503282"
     inkscape:cy="-181.04044"
     inkscape:document-units="mm"
     inkscape:current-layer="layer1"
     showgrid="false"
     inkscape:window-width="1920"
     inkscape:window-height="1017"
     inkscape:window-x="-8"
     inkscape:window-y="-8"
     inkscape:window-maximized="1" />
  <metadata
     id="metadata5">
    <rdf:RDF>
      <cc:Work
         rdf:about="">
        <dc:format>image/svg+xml</dc:format>
        <dc:type
           rdf:resource="http://purl.org/dc/dcmitype/StillImage" />
        <dc:title></dc:title>
      </cc:Work>
    </rdf:RDF>
  </metadata>
  <g
     inkscape:label="Layer 1"
     inkscape:groupmode="layer"
     id="layer1"
     transform="translate(-117.60816,-93.648809)">
    <path
       inkscape:connector-curvature="0"
       class="Note"
       d="m 123.29273,94.318469 c -0.62018,0 -1.06812,0.21484 -1.34382,0.64479 -0.3085,0.41354 -0.46302,0.97446 -0.46302,1.68275 0,0.81015 0.21511,1.50759 0.64506,2.09179 0.42995,0.5678 0.90408,0.96467 1.42213,1.19063 0.46302,0.223301 0.95356,0.334961 1.47162,0.334961 0.60378,0 1.05992,-0.21511 1.36842,-0.645061 0.29237,-0.43259 0.43842,-0.99351 0.43842,-1.68248 0,-0.81042 -0.21511,-1.5076 -0.64506,-2.0918 -0.42995,-0.55139 -0.89429,-0.94826 -1.39329,-1.19062 -0.50139,-0.22331 -1.00172,-0.33496 -1.50046,-0.33496 m 0.88054,-0.66966 c 1.86028,0 3.41048,0.36089 4.65084,1.08294 1.25677,0.72495 1.88516,1.57797 1.88516,2.55905 0,1.05013 -0.64638,1.91135 -1.93887,2.58392 -1.29275,0.705641 -2.82495,1.058331 -4.59713,1.058331 -1.82748,0 -3.37767,-0.36116 -4.65085,-1.083201 -1.27608,-0.7247 -1.91426,-1.57772 -1.91426,-2.55905 0,-1.04987 0.65458,-1.91135 1.96374,-2.58366 1.29275,-0.70564 2.82628,-1.05833 4.60137,-1.05833"
       id="path9834"
       style="stroke-width:0.26458332" />
  </g>
</svg>
