<?xml version="1.0" encoding="UTF-8" standalone="no"?>
<!-- Created with Inkscape (http://www.inkscape.org/) -->

<svg
   xmlns:dc="http://purl.org/dc/elements/1.1/"
   xmlns:cc="http://creativecommons.org/ns#"
   xmlns:rdf="http://www.w3.org/1999/02/22-rdf-syntax-ns#"
   xmlns:svg="http://www.w3.org/2000/svg"
   xmlns="http://www.w3.org/2000/svg"
   xmlns:sodipodi="http://sodipodi.sourceforge.net/DTD/sodipodi-0.dtd"
   xmlns:inkscape="http://www.inkscape.org/namespaces/inkscape"
   width="178.59375mm"
   height="178.59375mm"
   viewBox="0 0 178.59375 178.59374"
   version="1.1"
   id="svg8"
   sodipodi:docname="reset.svg"
   inkscape:version="0.92.4 (5da689c313, 2019-01-14)">
  <defs
     id="defs2" />
  <sodipodi:namedview
     id="base"
     pagecolor="#ffffff"
     bordercolor="#666666"
     borderopacity="1.0"
     inkscape:pageopacity="0.0"
     inkscape:pageshadow="2"
     inkscape:zoom="0.70710678"
     inkscape:cx="-67.839027"
     inkscape:cy="530.39427"
     inkscape:document-units="mm"
     inkscape:current-layer="layer1"
     showgrid="false"
     inkscape:pagecheckerboard="true"
     inkscape:window-width="1920"
     inkscape:window-height="1017"
     inkscape:window-x="1912"
     inkscape:window-y="-8"
     inkscape:window-maximized="1" />
  <metadata
     id="metadata5">
    <rdf:RDF>
      <cc:Work
         rdf:about="">
        <dc:format>image/svg+xml</dc:format>
        <dc:type
           rdf:resource="http://purl.org/dc/dcmitype/StillImage" />
        <dc:title></dc:title>
      </cc:Work>
    </rdf:RDF>
  </metadata>
  <g
     inkscape:label="Layer 1"
     inkscape:groupmode="layer"
     id="layer1"
     transform="translate(-214.62158,-189.29137)">
    <path
       style="fill:#4a85c4;stroke-width:0.26458332"
       d="m 296.7747,367.32919 c -15.87058,-1.30347 -30.73624,-6.64922 -43.92083,-15.79412 -5.63723,-3.91001 -13.08816,-10.76588 -17.45545,-16.06141 -9.22349,-11.18386 -15.8098,-24.84177 -18.63584,-38.64477 -1.36448,-6.66443 -1.70814,-10.3076 -1.70814,-18.10835 0,-7.80075 0.34366,-11.44393 1.70814,-18.10836 2.82604,-13.803 9.41235,-27.4609 18.63584,-38.64477 2.75201,-3.33693 9.53192,-10.00056 12.82524,-12.60529 12.40225,-9.80907 26.43413,-16.02007 41.4525,-18.34831 10.15486,-1.57427 18.06514,-1.57427 28.22001,0 15.4843,2.40047 30.22766,9.07978 42.64312,19.31898 3.33693,2.75202 10.00056,9.53192 12.60529,12.82525 8.81493,11.14528 14.93565,24.12259 17.66517,37.45414 1.36448,6.66443 1.70813,10.30761 1.70813,18.10836 0,7.80075 -0.34365,11.44392 -1.70813,18.10835 -2.72952,13.33155 -8.85024,26.30886 -17.66517,37.45415 -2.60473,3.29332 -9.26836,10.07323 -12.60529,12.82524 -8.42372,6.94716 -17.71259,12.13446 -28.34708,15.83023 -10.59961,3.68365 -23.92006,5.33497 -35.41751,4.39068 z m 12.43542,-26.19203 c 16.36481,-1.67604 30.93996,-10.21011 41.1694,-24.1056 2.10557,-2.86018 3.25289,-4.7426 5.26498,-8.63831 l 1.4552,-2.81751 6.175,-0.13229 6.17499,-0.13229 0.63803,-0.74236 c 1.35284,-1.57405 1.50067,-1.28226 -9.05918,-17.88127 -5.33347,-8.38367 -10.03602,-15.59752 -10.45012,-16.03077 -0.59029,-0.6176 -0.98189,-0.78774 -1.81309,-0.78774 -0.83136,0 -1.22254,0.17002 -1.81241,0.78774 -0.64347,0.67385 -19.25885,29.36784 -20.11076,30.99899 -0.4999,0.95715 -0.34475,1.87921 0.46969,2.79134 l 0.77152,0.86407 5.44619,0.0813 c 4.32036,0.0645 5.44619,0.15417 5.44619,0.43391 0,0.44095 -1.99789,3.18259 -3.93123,5.39469 -2.9217,3.34297 -8.12681,7.26416 -12.64649,9.52705 -2.94087,1.47241 -7.71407,3.0825 -11.28369,3.8062 -2.55601,0.5182 -3.74318,0.59851 -8.65109,0.58524 -4.85606,-0.0131 -6.09044,-0.102 -8.43482,-0.60731 -6.63187,-1.42944 -12.23085,-3.88224 -17.07922,-7.48208 -3.44258,-2.55606 -5.72141,-4.79656 -8.59744,-8.45284 -1.19274,-1.51633 -2.59321,-3.07984 -3.11214,-3.47446 -2.99032,-2.27397 -7.67901,-1.94957 -10.65276,0.73703 -2.25643,2.03856 -3.03378,5.17172 -1.89882,7.65337 0.79797,1.74482 4.44976,6.43115 7.29061,9.35603 7.90344,8.13722 17.17555,13.72865 27.4232,16.53722 7.44768,2.04118 13.83058,2.54772 21.80826,1.73067 z m -51.93185,-53.9394 c 0.36262,-0.28523 5.14117,-7.47236 10.61901,-15.97138 11.00036,-17.06738 10.76862,-16.60848 9.18632,-18.19078 l -0.7734,-0.7734 h -3.9974 c -3.2882,0 -4.02412,-0.0696 -4.14793,-0.39224 -0.0867,-0.22582 0.39146,-1.15197 1.12684,-2.18281 10.88986,-15.26518 31.07742,-21.79382 49.17883,-15.9044 8.12573,2.64376 16.18944,8.40092 20.88014,14.90758 2.44591,3.3928 4.43879,4.6235 7.49358,4.62762 3.28794,0.004 6.12125,-1.53921 7.67427,-4.1811 1.01379,-1.72457 1.01487,-4.09049 0.003,-6.03726 -1.12916,-2.17191 -3.77378,-5.49902 -7.13511,-8.97646 -7.02546,-7.26813 -14.2328,-11.9645 -23.62397,-15.39362 -3.61765,-1.32096 -8.92497,-2.49797 -13.52085,-2.99854 -3.43747,-0.37441 -11.04385,-0.17468 -14.52498,0.38139 -11.44453,1.82812 -21.52858,6.6418 -30.10467,14.37064 -5.90023,5.31733 -10.42125,11.31222 -14.17992,18.80264 l -1.36086,2.71198 -6.67832,0.002 c -3.76059,7.9e-4 -7.10654,0.1204 -7.65846,0.27369 -1.34766,0.37429 -2.14891,1.4394 -1.98844,2.64324 0.0864,0.6479 3.14185,5.67308 9.97429,16.40416 5.41739,8.50858 10.10543,15.67585 10.41788,15.92728 0.76814,0.61812 2.32267,0.59352 3.1404,-0.0497 z"
       id="path3789"
       inkscape:connector-curvature="0" />
  </g>
</svg>
