<?xml version="1.0" encoding="UTF-8" standalone="no"?>
<!-- Created with Inkscape (http://www.inkscape.org/) -->

<svg
   xmlns:dc="http://purl.org/dc/elements/1.1/"
   xmlns:cc="http://creativecommons.org/ns#"
   xmlns:rdf="http://www.w3.org/1999/02/22-rdf-syntax-ns#"
   xmlns:svg="http://www.w3.org/2000/svg"
   xmlns="http://www.w3.org/2000/svg"
   xmlns:sodipodi="http://sodipodi.sourceforge.net/DTD/sodipodi-0.dtd"
   xmlns:inkscape="http://www.inkscape.org/namespaces/inkscape"
   width="6.6929002mm"
   height="12.30312mm"
   viewBox="0 0 6.6928996 12.303119"
   version="1.1"
   id="svg8"
   inkscape:version="0.92.4 (5da689c313, 2019-01-14)"
   sodipodi:docname="rest8.svg">
  <defs
     id="defs2" />
  <sodipodi:namedview
     id="base"
     pagecolor="#ffffff"
     bordercolor="#666666"
     borderopacity="1.0"
     inkscape:pageopacity="0.0"
     inkscape:pageshadow="2"
     inkscape:zoom="0.35"
     inkscape:cx="65.533385"
     inkscape:cy="-232.66793"
     inkscape:document-units="mm"
     inkscape:current-layer="layer1"
     showgrid="false"
     inkscape:window-width="1920"
     inkscape:window-height="1017"
     inkscape:window-x="-8"
     inkscape:window-y="-8"
     inkscape:window-maximized="1" />
  <metadata
     id="metadata5">
    <rdf:RDF>
      <cc:Work
         rdf:about="">
        <dc:format>image/svg+xml</dc:format>
        <dc:type
           rdf:resource="http://purl.org/dc/dcmitype/StillImage" />
        <dc:title></dc:title>
      </cc:Work>
    </rdf:RDF>
  </metadata>
  <g
     inkscape:label="Layer 1"
     inkscape:groupmode="layer"
     id="layer1"
     transform="translate(-88.494292,-74.970157)">
    <path
       inkscape:connector-curvature="0"
       class="Rest"
       d="m 90.433202,74.970157 c 0.49874,0 0.87762,0.13758 1.13691,0.41328 0.25903,0.31141 0.39688,0.6051 0.41328,0.88053 0.0357,0.25903 0.12277,0.55139 0.26035,0.87656 0.15452,0.27543 0.35163,0.41328 0.59134,0.41328 0.19024,0 0.47546,-0.21484 0.85567,-0.64479 0.34448,-0.37756 0.59399,-0.71384 0.74824,-1.00885 0.0855,-0.17092 0.20532,-0.25612 0.35983,-0.25612 h 0.0288 c 0.17092,0.0164 0.29078,0.10186 0.35957,0.25612 l -3.25332,11.1125 c -0.17383,0.17383 -0.41566,0.26061 -0.72575,0.26061 -0.31009,0 -0.55033,-0.0868 -0.72125,-0.26061 l 3.10065,-8.63203 c -1.10252,0.39687 -2.03279,0.59531 -2.79056,0.59531 -0.62018,0 -1.15491,-0.19844 -1.60417,-0.59531 -0.46567,-0.37756 -0.6985,-0.8763 -0.6985,-1.49649 0,-0.53472 0.18997,-0.98266 0.57044,-1.34355 0.37756,-0.38047 0.8337,-0.57044 1.36843,-0.57044"
       id="path9916"
       style="stroke-width:0.26458332" />
  </g>
</svg>
