<?xml version="1.0" encoding="UTF-8" standalone="no"?>
<!-- Created with Inkscape (http://www.inkscape.org/) -->

<svg
   xmlns:dc="http://purl.org/dc/elements/1.1/"
   xmlns:cc="http://creativecommons.org/ns#"
   xmlns:rdf="http://www.w3.org/1999/02/22-rdf-syntax-ns#"
   xmlns:svg="http://www.w3.org/2000/svg"
   xmlns="http://www.w3.org/2000/svg"
   xmlns:sodipodi="http://sodipodi.sourceforge.net/DTD/sodipodi-0.dtd"
   xmlns:inkscape="http://www.inkscape.org/namespaces/inkscape"
   width="177.35808mm"
   height="177.40242mm"
   viewBox="0 0 177.35808 177.40242"
   version="1.1"
   id="svg8"
   inkscape:version="0.92.4 (5da689c313, 2019-01-14)"
   sodipodi:docname="save.svg">
  <defs
     id="defs2" />
  <sodipodi:namedview
     id="base"
     pagecolor="#ffffff"
     bordercolor="#666666"
     borderopacity="1.0"
     inkscape:pageopacity="0.0"
     inkscape:pageshadow="2"
     inkscape:zoom="0.7"
     inkscape:cx="432.32269"
     inkscape:cy="265.20608"
     inkscape:document-units="mm"
     inkscape:current-layer="layer1"
     showgrid="false"
     inkscape:window-width="1920"
     inkscape:window-height="1017"
     inkscape:window-x="-8"
     inkscape:window-y="-8"
     inkscape:window-maximized="1" />
  <metadata
     id="metadata5">
    <rdf:RDF>
      <cc:Work
         rdf:about="">
        <dc:format>image/svg+xml</dc:format>
        <dc:type
           rdf:resource="http://purl.org/dc/dcmitype/StillImage" />
        <dc:title></dc:title>
      </cc:Work>
    </rdf:RDF>
  </metadata>
  <g
     inkscape:label="Layer 1"
     inkscape:groupmode="layer"
     id="layer1"
     transform="translate(23.691085,-55.264525)">
    <path
       style="fill:#4a85c4;stroke-width:0.35277778;fill-opacity:1"
       d="M 58.1004,232.48122 C 31.9761,230.12088 9.3036699,217.58853 -6.0661401,197.01268 -15.1435,184.86067 -20.53141,171.89309 -22.87027,156.56868 c -1.09442,-7.17069 -1.09442,-18.12741 0,-25.2981 3.00696,-19.70185 11.23736,-36.016555 25.2269599,-50.006155 13.9895901,-13.9896 30.3043101,-22.22 50.0061601,-25.22696 4.02556,-0.6144 6.62007,-0.77294 12.64905,-0.77294 8.686,0 14.42846,0.70396 22.39204,2.745 30.78404,7.88983 55.62824,32.73403 63.51807,63.518065 2.04104,7.96358 2.74499,13.70604 2.74499,22.39204 0,6.02898 -0.15853,8.62349 -0.77293,12.64905 -3.00696,19.70185 -11.23736,36.01657 -25.22696,50.00616 -13.96551,13.96551 -30.58761,22.35696 -49.86385,25.17311 -5.58303,0.81565 -14.93776,1.1638 -19.70286,0.73327 z m 17.81412,-0.9345 c 29.22394,-3.4192 55.27277,-21.96809 68.31402,-48.64515 3.12163,-6.38559 4.74731,-10.72499 6.32479,-16.88278 3.68658,-14.3907 3.68658,-29.80762 0,-44.19832 -4.37623,-17.08278 -14.33628,-33.153115 -27.6602,-44.629135 -10.29402,-8.86634 -22.96993,-15.53095 -35.78207,-18.81313 -14.3907,-3.68658 -29.80762,-3.68658 -44.19832,0 -6.15876,1.57773 -10.49805,3.20348 -16.88278,6.32525 -17.4872801,8.55028 -31.6876701,22.75051 -40.2347,40.234235 -3.12164,6.38559 -4.74731,10.72499 -6.3248,16.88278 -3.68657,14.3907 -3.68657,29.80762 0,44.19832 4.37623,17.08278 14.3362899,33.15312 27.6602099,44.62914 10.2940201,8.86634 22.9699201,15.53095 35.7820701,18.81313 10.92275,2.79817 21.30429,3.45427 33.00178,2.08566 z m -14.95956,0.16063 c -7.68493,-0.3136 -12.60428,-1.08775 -19.94299,-3.1384 -31.8346201,-8.89552 -56.19706,-35.47114 -62.4001,-68.06876 -2.10373,-11.05531 -1.99681,-23.75973 0.29201,-34.69642 2.63247,-12.57878 8.05543,-24.47839 16.0062599,-35.122535 3.25033,-4.35138 12.51198,-13.61302 16.8633601,-16.86336 10.64415,-7.95082 22.54376,-13.37379 35.12254,-16.00626 8.13034,-1.70151 19.84455,-2.27938 27.75579,-1.36922 38.59815,4.44057 69.5549,33.03265 76.7601,70.896675 2.10372,11.05531 1.99681,23.75973 -0.29201,34.69642 -2.63247,12.57878 -8.05544,24.47839 -16.00626,35.12254 -3.25034,4.35138 -12.51198,13.61303 -16.86336,16.86336 -10.9141,8.15247 -22.8583,13.52505 -35.89447,16.14558 -7.17553,1.44242 -13.19101,1.8754 -21.40087,1.54038 z m 40.25848,-49.20205 c 0.66374,-0.31496 1.56086,-1.06902 1.9936,-1.67569 l 0.7868,-1.10304 V 153.9738 128.22102 l -0.98947,-2.11667 c -0.82691,-1.76892 -2.36276,-3.49591 -9.34861,-10.51204 -7.07662,-7.1073 -8.7098,-8.56869 -10.64468,-9.525 l -2.28553,-1.12962 H 54.96525 29.20496 l -1.10304,0.7868 c -2.39751,1.71016 -2.26839,-0.59664 -2.16516,38.68044 l 0.0932,35.45898 1.23472,1.28958 c 0.6791,0.70927 1.55223,1.42236 1.94028,1.58466 0.38806,0.1623 16.47719,0.30515 35.75363,0.31745 31.63557,0.0202 35.16557,-0.0334 36.25486,-0.5503 z m -72.45268,-0.48377 c -0.63237,-0.38555 -1.46521,-1.21839 -1.85077,-1.85076 -0.68709,-1.12693 -0.70101,-1.8465 -0.70101,-36.25114 0,-34.40464 0.0139,-35.12421 0.70101,-36.25114 0.38556,-0.63237 1.2184,-1.46751 1.85077,-1.85588 1.12587,-0.69147 1.6773,-0.70422 26.54975,-0.61414 l 25.4,0.092 2.09591,0.98055 c 1.73589,0.81212 3.51201,2.38765 10.34002,9.17223 7.01806,6.97342 8.41146,8.53269 9.36937,10.48472 l 1.12525,2.29306 0.092,25.4 c 0.0901,24.87245 0.0773,25.42388 -0.61414,26.54975 -0.38837,0.63237 -1.22352,1.46521 -1.85588,1.85076 -1.12693,0.6871 -1.8465,0.70102 -36.25114,0.70102 -34.40464,0 -35.12421,-0.0139 -36.25114,-0.70102 z m 72.61708,-0.4452 c 1.97621,-1.34315 1.91044,-0.38806 1.91044,-27.74436 V 128.5738 l -0.98959,-2.11667 c -0.82523,-1.76508 -2.34877,-3.48188 -9.17223,-10.33573 -6.91357,-6.94436 -8.53708,-8.39425 -10.46813,-9.34861 l -2.28552,-1.12955 H 54.96528 c -23.65285,0 -25.47051,0.0428 -26.31932,0.61969 -2.00432,1.36225 -1.91045,-0.49836 -1.91045,37.86693 v 35.38116 l 1.19856,1.23658 c 0.65921,0.68013 1.53233,1.30355 1.94028,1.38539 0.40794,0.0819 16.45797,0.12951 35.66672,0.10592 32.68937,-0.0402 34.98336,-0.0826 35.83677,-0.66258 z m -40.05161,-5.11671 c -11.86469,-0.0704 -15.5689,-0.19458 -15.78141,-0.52917 -0.37445,-0.58959 -0.35636,-18.30475 0.0193,-18.89731 0.41836,-0.65989 38.49828,-0.62434 38.91801,0.0363 0.34883,0.54907 0.3633,18.29003 0.0153,18.81424 -0.36949,0.55665 -5.38796,0.68138 -23.17124,0.57591 z m 22.87431,-0.99523 c 0.27938,-0.72803 0.27938,-17.20593 0,-17.93396 -0.19158,-0.49927 -2.2118,-0.55802 -19.18864,-0.55802 -16.97684,0 -18.99706,0.0588 -19.18865,0.55802 -0.27937,0.72803 -0.27937,17.20593 0,17.93396 0.19159,0.49927 2.21181,0.55802 19.18865,0.55802 16.97684,0 18.99706,-0.0588 19.18864,-0.55802 z m -37.95306,-6.58573 c -0.0907,-3.73504 -0.0942,-7.86254 -0.008,-9.17222 l 0.15718,-2.38125 H 65.0039 83.61114 l 0.16497,6.79097 c 0.0907,3.73503 0.0942,7.86253 0.008,9.17222 l -0.15718,2.38125 H 65.01969 46.41245 Z M 32.48045,153.70921 c -0.0553,-12.46628 -0.0211,-27.03159 0.0759,-32.36736 l 0.17639,-9.70139 3.14517,-0.10278 c 2.27822,-0.0744 3.22483,0.0228 3.43418,0.35278 0.15896,0.25056 0.29204,5.29743 0.29574,11.21528 0.006,10.16456 0.0461,10.82432 0.71868,11.92748 1.32694,2.17644 1.56509,2.20472 18.29594,2.1724 16.60898,-0.0321 16.57465,-0.0279 18.18244,-2.21937 0.69546,-0.94794 0.73632,-1.52533 0.84886,-11.99445 0.065,-6.04921 0.24885,-11.13476 0.4085,-11.30122 0.16078,-0.16765 0.89488,-0.10915 1.64565,0.13115 1.82225,0.58323 16.10622,14.62784 17.09928,16.81273 0.6344,1.39577 0.66933,2.64915 0.67629,24.26826 0.004,12.53807 -0.0867,22.94858 -0.20153,23.13447 -0.11489,0.1859 -1.61129,0.338 -3.32533,0.338 -2.51635,0 -3.15767,-0.10745 -3.33057,-0.55803 -0.11777,-0.3069 -0.21472,-5.34722 -0.21545,-11.20069 -0.001,-10.05238 -0.0408,-10.70744 -0.71328,-11.81043 -1.35482,-2.22216 -0.92377,-2.18421 -24.70495,-2.1752 -23.7506,0.009 -23.32212,-0.0288 -24.66585,2.1752 -0.67247,1.10299 -0.71204,1.75805 -0.71328,11.81043 -7.1e-4,5.85347 -0.0977,10.89379 -0.21545,11.20069 -0.17416,0.45384 -0.83052,0.55803 -3.51548,0.55803 h -3.30134 z m 6.56454,21.75518 c 0.11777,-0.30691 0.21472,-5.34723 0.21545,-11.2007 10e-4,-9.7904 0.0544,-10.72968 0.66391,-11.72924 1.41481,-2.32013 0.80216,-2.26482 25.08755,-2.26482 24.28539,0 23.67274,-0.0553 25.08755,2.26482 0.60961,0.99968 0.66313,1.94695 0.66931,11.84629 0.004,5.91785 0.13714,10.9653 0.29653,11.21657 0.20712,0.32649 1.08635,0.42715 3.0814,0.35278 l 2.79159,-0.10407 0.10366,-22.40139 c 0.0738,-15.95748 -0.0117,-22.80731 -0.29742,-23.8125 -0.32388,-1.13951 -1.83761,-2.85924 -7.86477,-8.93507 -6.92728,-6.98323 -9.62382,-9.22202 -10.4744,-8.69634 -0.20685,0.12785 -0.34089,4.39412 -0.34122,10.86126 -7.1e-4,11.89198 -0.0779,12.33363 -2.43287,13.90687 l -1.1987,0.80078 H 58.75124 c -17.35542,0 -17.45296,-0.0118 -18.82689,-2.26482 -0.60961,-0.99968 -0.66313,-1.94695 -0.66931,-11.84629 -0.004,-5.91785 -0.13714,-10.9653 -0.29653,-11.21657 -0.20712,-0.32649 -1.08636,-0.42715 -3.08141,-0.35278 l -2.79159,0.10407 -0.0901,32.01458 -0.0901,32.01459 h 2.96273 c 2.37619,0 3.00513,-0.11047 3.17687,-0.55802 z M 33.2619,143.91963 v -31.75 h 2.64583 2.64584 l 0.0546,5.55625 c 0.0301,3.05594 0.0697,7.9375 0.0882,10.84792 0.0369,5.816 0.34018,6.86377 2.44029,8.42979 0.97311,0.72563 1.35883,0.74466 17.04319,0.84102 15.99871,0.0983 16.05178,0.0962 17.43697,-0.6823 0.89198,-0.50132 1.64204,-1.30273 2.09501,-2.23845 0.65701,-1.35721 0.70558,-2.1784 0.70558,-11.9295 0,-11.46812 -0.077,-11.09304 2.046,-9.96642 1.66622,0.88423 15.16521,14.72218 15.75624,16.15189 0.46845,1.13318 0.54221,4.38419 0.54221,23.90069 v 22.58911 h -2.64584 -2.64583 l -0.0546,-5.55625 c -0.0301,-3.05594 -0.0697,-7.9375 -0.0882,-10.84792 -0.0369,-5.81626 -0.34026,-6.86413 -2.44067,-8.42979 -0.98852,-0.73685 -1.16791,-0.74243 -23.87482,-0.74243 -22.70691,0 -22.8863,0.006 -23.87483,0.74243 -0.5478,0.40834 -1.3135,1.28146 -1.70156,1.94028 -0.65074,1.10479 -0.70937,1.88297 -0.75468,10.01729 -0.027,4.8507 -0.0667,9.73226 -0.0882,10.84792 l -0.0391,2.02847 h -2.64585 -2.64583 z m 25.63107,-13.34514 c -0.50986,-0.56338 -0.58385,-1.7412 -0.58385,-9.29393 0,-7.93079 0.0536,-8.69727 0.64514,-9.23264 0.54196,-0.49047 1.52057,-0.58385 6.11893,-0.58385 4.8549,0 5.53982,0.073 6.05764,0.64514 0.50986,0.56339 0.58385,1.74121 0.58385,9.29394 0,7.93079 -0.0536,8.69726 -0.64514,9.23264 -0.54196,0.49047 -1.52057,0.58384 -6.11894,0.58384 -4.8549,0 -5.53981,-0.0729 -6.05763,-0.64514 z m 11.91456,-0.262 c 0.47299,-0.47299 0.55437,-1.78985 0.55437,-8.97064 0,-7.18078 -0.0814,-8.49765 -0.55437,-8.97063 -0.81742,-0.81743 -10.77384,-0.81743 -11.59126,0 -0.83029,0.83028 -0.83029,17.11098 0,17.94127 0.81742,0.81742 10.77384,0.81742 11.59126,0 z m -11.36952,-0.22175 c -0.60128,-0.60128 -0.60128,-16.89649 0,-17.49778 0.2906,-0.29059 2.03827,-0.42333 5.57389,-0.42333 3.53562,0 5.28329,0.13274 5.57389,0.42333 0.60128,0.60129 0.60128,16.8965 0,17.49778 -0.2906,0.2906 -2.03827,0.42333 -5.57389,0.42333 -3.53562,0 -5.28329,-0.13273 -5.57389,-0.42333 z"
       id="path858"
       inkscape:connector-curvature="0" />
  </g>
</svg>
