<?xml version="1.0" encoding="UTF-8" standalone="no"?>
<!-- Created with Inkscape (http://www.inkscape.org/) -->

<svg
   xmlns:dc="http://purl.org/dc/elements/1.1/"
   xmlns:cc="http://creativecommons.org/ns#"
   xmlns:rdf="http://www.w3.org/1999/02/22-rdf-syntax-ns#"
   xmlns:svg="http://www.w3.org/2000/svg"
   xmlns="http://www.w3.org/2000/svg"
   xmlns:sodipodi="http://sodipodi.sourceforge.net/DTD/sodipodi-0.dtd"
   xmlns:inkscape="http://www.inkscape.org/namespaces/inkscape"
   width="8.8098297mm"
   height="13.22917mm"
   viewBox="0 0 8.8098288 13.229169"
   version="1.1"
   id="svg8"
   inkscape:version="0.92.4 (5da689c313, 2019-01-14)"
   sodipodi:docname="timeSign3.svg">
  <defs
     id="defs2" />
  <sodipodi:namedview
     id="base"
     pagecolor="#ffffff"
     bordercolor="#666666"
     borderopacity="1.0"
     inkscape:pageopacity="0.0"
     inkscape:pageshadow="2"
     inkscape:zoom="0.35"
     inkscape:cx="212.95691"
     inkscape:cy="-196.09406"
     inkscape:document-units="mm"
     inkscape:current-layer="layer1"
     showgrid="false"
     inkscape:window-width="1920"
     inkscape:window-height="1017"
     inkscape:window-x="-8"
     inkscape:window-y="-8"
     inkscape:window-maximized="1" />
  <metadata
     id="metadata5">
    <rdf:RDF>
      <cc:Work
         rdf:about="">
        <dc:format>image/svg+xml</dc:format>
        <dc:type
           rdf:resource="http://purl.org/dc/dcmitype/StillImage" />
        <dc:title></dc:title>
      </cc:Work>
    </rdf:RDF>
  </metadata>
  <g
     inkscape:label="Layer 1"
     inkscape:groupmode="layer"
     id="layer1"
     transform="translate(-49.488485,-83.720941)">
    <path
       inkscape:connector-curvature="0"
       class="TimeSig"
       d="m 56.438035,89.946591 c 0,0.17462 0.095,0.33867 0.28522,0.49212 0.27543,0.20638 0.49054,0.36248 0.64479,0.46832 0.2069,0.11906 0.42307,0.39423 0.64902,0.8255 0.18759,0.41539 0.28125,0.92075 0.28125,1.52135 0,1.19063 -0.43815,2.10608 -1.31471,2.74108 -0.89562,0.63765 -2.03253,0.95515 -3.41048,0.95515 -1.12183,0 -2.06984,-0.27517 -2.84427,-0.8255 -0.82682,-0.51594 -1.24037,-1.2409 -1.24037,-2.17223 0,-0.4445 0.17225,-0.8599 0.51673,-1.23825 0.36116,-0.32808 0.77444,-0.49212 1.24037,-0.49212 0.48234,0 0.87921,0.17197 1.19062,0.51593 0.34449,0.32809 0.51674,0.7329 0.51674,1.21444 0,0.2249 -0.17225,0.46567 -0.51674,0.72496 -0.3638,0.24342 -0.54583,0.47625 -0.54583,0.6985 0,0.32808 0.16404,0.56885 0.49212,0.72231 0.32782,0.15611 0.7247,0.23283 1.19063,0.23283 0.6006,0 1.03055,-0.29368 1.28984,-0.87577 0.24236,-0.64029 0.36381,-1.37318 0.36381,-2.20133 v -0.43656 c 0,-0.50006 -0.018,-0.93927 -0.054,-1.32027 -0.0331,-0.29104 -0.15293,-0.55827 -0.35957,-0.7964 -0.19023,-0.24342 -0.49186,-0.36512 -0.9054,-0.36512 h -2.12064 c -0.23998,0 -0.35983,-0.12965 -0.35983,-0.38894 0,-0.22225 0.11985,-0.3519 0.35983,-0.38894 h 2.12064 c 0.48233,0 0.82682,-0.15346 1.03346,-0.46302 0.17092,-0.24077 0.26617,-0.67204 0.28549,-1.29381 v -0.84931 -0.20903 c 0,-1.60072 -0.58579,-2.39977 -1.7571,-2.39977 -1.03347,0 -1.55999,0.28311 -1.5793,0.84932 0,0.1905 0.16404,0.39687 0.49212,0.62177 0.31142,0.22225 0.46699,0.42862 0.46699,0.61912 0,0.43127 -0.15557,0.80169 -0.46699,1.1139 -0.29236,0.29104 -0.65325,0.43656 -1.0832,0.43656 -0.41354,0 -0.76756,-0.14552 -1.06257,-0.43656 -0.2921,-0.32809 -0.43815,-0.70115 -0.43815,-1.1139 0,-0.80962 0.36248,-1.47373 1.08718,-1.98702 0.75803,-0.48419 1.61925,-0.72496 2.58392,-0.72496 1.28984,0 2.3577,0.24871 3.20384,0.74877 0.84349,0.48155 1.26523,1.2409 1.26523,2.27277 0,0.74348 -0.0772,1.30175 -0.23151,1.68011 -0.15716,0.39687 -0.3294,0.63764 -0.51699,0.72231 -0.20664,0.09 -0.37889,0.19315 -0.51673,0.30956 -0.1569,0.12171 -0.23548,0.28575 -0.23548,0.49213"
       id="path9866"
       style="stroke-width:0.26458332" />
  </g>
</svg>
