<?xml version="1.0" encoding="UTF-8" standalone="no"?>
<!-- Created with Inkscape (http://www.inkscape.org/) -->

<svg
   xmlns:dc="http://purl.org/dc/elements/1.1/"
   xmlns:cc="http://creativecommons.org/ns#"
   xmlns:rdf="http://www.w3.org/1999/02/22-rdf-syntax-ns#"
   xmlns:svg="http://www.w3.org/2000/svg"
   xmlns="http://www.w3.org/2000/svg"
   xmlns:sodipodi="http://sodipodi.sourceforge.net/DTD/sodipodi-0.dtd"
   xmlns:inkscape="http://www.inkscape.org/namespaces/inkscape"
   width="9.71523mm"
   height="13.2292mm"
   viewBox="0 0 9.715229 13.2292"
   version="1.1"
   id="svg8"
   inkscape:version="0.92.4 (5da689c313, 2019-01-14)"
   sodipodi:docname="timeSign2.svg">
  <defs
     id="defs2" />
  <sodipodi:namedview
     id="base"
     pagecolor="#ffffff"
     bordercolor="#666666"
     borderopacity="1.0"
     inkscape:pageopacity="0.0"
     inkscape:pageshadow="2"
     inkscape:zoom="0.35"
     inkscape:cx="539.16555"
     inkscape:cy="-192.52264"
     inkscape:document-units="mm"
     inkscape:current-layer="layer1"
     showgrid="false"
     inkscape:window-width="1920"
     inkscape:window-height="1017"
     inkscape:window-x="-8"
     inkscape:window-y="-8"
     inkscape:window-maximized="1" />
  <metadata
     id="metadata5">
    <rdf:RDF>
      <cc:Work
         rdf:about="">
        <dc:format>image/svg+xml</dc:format>
        <dc:type
           rdf:resource="http://purl.org/dc/dcmitype/StillImage" />
        <dc:title></dc:title>
      </cc:Work>
    </rdf:RDF>
  </metadata>
  <g
     inkscape:label="Layer 1"
     inkscape:groupmode="layer"
     id="layer1"
     transform="translate(36.820886,-84.665849)">
    <path
       inkscape:connector-curvature="0"
       class="TimeSig"
       d="m -30.772776,97.895019 c -0.51805,0 -0.98399,-0.0926 -1.39726,-0.2831 -0.41355,-0.18786 -0.70565,-0.3863 -0.87657,-0.59267 -0.22595,-0.25929 -0.45058,-0.45773 -0.67363,-0.59531 -0.27569,-0.1905 -0.55959,-0.28575 -0.85169,-0.28575 -0.44926,0 -0.81995,0.13758 -1.11205,0.41275 -0.30876,0.25929 -0.48101,0.61383 -0.51673,1.05833 -0.0331,0.1905 -0.13652,0.28575 -0.31009,0.28575 -0.2069,0 -0.31009,-0.0953 -0.31009,-0.28575 0,-0.6694 0.15557,-1.27 0.46699,-1.80446 0.30877,-0.55298 0.68765,-1.00806 1.13691,-1.37054 0.37756,-0.32808 0.87657,-0.72496 1.49675,-1.19063 0.10451,-0.0847 0.32438,-0.26458 0.65934,-0.53975 0.3347,-0.27516 0.61516,-0.508 0.84111,-0.6985 0.44662,-0.37835 0.83371,-0.87841 1.16179,-1.50283 0.30877,-0.61912 0.46302,-1.29117 0.46302,-2.01083 0,-0.88106 -0.14605,-1.63777 -0.43815,-2.27542 -0.30877,-0.61912 -0.7829,-0.92869 -1.42214,-0.92869 -0.39422,0 -0.71252,0.0847 -0.95514,0.254 -0.25903,0.17463 -0.38841,0.40746 -0.38841,0.70115 0,0.24077 0.15505,0.5424 0.46487,0.90487 0.31009,0.35984 0.46514,0.66146 0.46514,0.90488 0,0.51594 -0.18045,0.9525 -0.5416,1.31498 -0.34449,0.34396 -0.76597,0.51594 -1.26497,0.51594 -0.51806,0 -0.9578,-0.17992 -1.31869,-0.5424 -0.34449,-0.37571 -0.51673,-0.80698 -0.51673,-1.28852 0,-0.98425 0.39608,-1.79388 1.18851,-2.43152 0.79243,-0.635 1.7481,-0.95515 2.86702,-0.95515 1.32848,0 2.48312,0.36248 3.46446,1.08479 0.98107,0.68792 1.47161,1.60073 1.47161,2.74109 0,0.77258 -0.13785,1.43669 -0.41328,1.98702 -0.25929,0.58737 -0.64638,1.0451 -1.16178,1.37319 -0.58711,0.37835 -1.09564,0.66939 -1.52559,0.87577 -0.60352,0.27516 -1.20571,0.53446 -1.80658,0.77787 -0.72469,0.29104 -1.28561,0.56621 -1.68248,0.8255 0.22595,-0.0503 0.45879,-0.0767 0.6985,-0.0767 0.79375,0 1.62057,0.25665 2.48047,0.77259 0.87921,0.51858 1.55998,0.77787 2.04232,0.77787 0.2921,0 0.52519,-0.0529 0.69876,-0.15875 0.17092,-0.10054 0.28231,-0.21431 0.3347,-0.33337 0.0691,-0.17198 0.12964,-0.29105 0.18203,-0.35984 0.0688,-0.10583 0.15425,-0.15875 0.25638,-0.15875 0.20664,0 0.31009,0.10319 0.31009,0.31221 0,0.48154 -0.34475,1.06627 -1.03372,1.75683 -0.67231,0.68792 -1.5502,1.03188 -2.6334,1.03188"
       id="path9870"
       style="stroke-width:0.26458332" />
  </g>
</svg>
