<?xml version="1.0" encoding="UTF-8" standalone="no"?>
<!-- Created with Inkscape (http://www.inkscape.org/) -->

<svg
   xmlns:dc="http://purl.org/dc/elements/1.1/"
   xmlns:cc="http://creativecommons.org/ns#"
   xmlns:rdf="http://www.w3.org/1999/02/22-rdf-syntax-ns#"
   xmlns:svg="http://www.w3.org/2000/svg"
   xmlns="http://www.w3.org/2000/svg"
   xmlns:sodipodi="http://sodipodi.sourceforge.net/DTD/sodipodi-0.dtd"
   xmlns:inkscape="http://www.inkscape.org/namespaces/inkscape"
   width="18.163651mm"
   height="13.30586mm"
   viewBox="0 0 18.163649 13.305859"
   version="1.1"
   id="svg8"
   inkscape:version="0.92.4 (5da689c313, 2019-01-14)"
   sodipodi:docname="timeSign12.svg">
  <defs
     id="defs2" />
  <sodipodi:namedview
     id="base"
     pagecolor="#ffffff"
     bordercolor="#666666"
     borderopacity="1.0"
     inkscape:pageopacity="0.0"
     inkscape:pageshadow="2"
     inkscape:zoom="0.35"
     inkscape:cx="219.8659"
     inkscape:cy="-321.66339"
     inkscape:document-units="mm"
     inkscape:current-layer="layer1"
     showgrid="false"
     inkscape:window-width="1920"
     inkscape:window-height="1017"
     inkscape:window-x="-8"
     inkscape:window-y="-8"
     inkscape:window-maximized="1" />
  <metadata
     id="metadata5">
    <rdf:RDF>
      <cc:Work
         rdf:about="">
        <dc:format>image/svg+xml</dc:format>
        <dc:type
           rdf:resource="http://purl.org/dc/dcmitype/StillImage" />
        <dc:title></dc:title>
      </cc:Work>
    </rdf:RDF>
  </metadata>
  <g
     inkscape:label="Layer 1"
     inkscape:groupmode="layer"
     id="layer1"
     transform="translate(-47.66048,-50.4207)">
    <g
       transform="translate(245.81894,-198.59429)"
       id="g11074">
      <path
         style="stroke-width:0.26458332"
         id="path9848"
         d="m -193.48062,249.42771 c 0.24077,0 0.48948,-0.0609 0.74877,-0.17992 0.25929,-0.11906 0.41539,-0.17992 0.46831,-0.17992 0.18785,0 0.29898,0.14552 0.33337,0.43921 v 9.7155 c 0,0.67204 0.18257,1.25677 0.5424,1.75683 0.381,0.48155 0.84667,0.72232 1.397,0.72232 0.20638,0 0.30956,0.10318 0.30956,0.30956 0,0.20637 -0.10318,0.30956 -0.30956,0.30956 -0.50006,0 -1.08744,-0.0503 -1.75683,-0.15081 -0.74084,-0.12171 -1.30969,-0.18256 -1.70657,-0.18256 -0.43127,0 -1.016,0.0609 -1.75683,0.18256 -0.77523,0.10054 -1.35202,0.15081 -1.73302,0.15081 -0.20637,0 -0.30956,-0.10319 -0.30956,-0.30956 0,-0.20638 0.10319,-0.30956 0.30956,-0.30956 0.55033,0 1.016,-0.24077 1.397,-0.72232 0.36248,-0.50006 0.5424,-1.08479 0.5424,-1.75683 V 252.735 c 0,-0.0847 -0.0503,-0.19844 -0.15346,-0.33602 -0.0688,-0.10319 -0.17198,-0.15611 -0.30956,-0.15611 -0.12171,0 -0.20903,0.0609 -0.26194,0.18257 l -1.67746,3.59304 c -0.0688,0.17198 -0.19844,0.25929 -0.38894,0.25929 -0.0847,0 -0.16139,-0.0344 -0.23019,-0.10319 -0.0899,-0.0873 -0.13229,-0.18256 -0.13229,-0.28575 0,-0.0159 0.0159,-0.0767 0.0529,-0.18256 l 3.10092,-6.61458 c 0.0344,-0.0503 0.0794,-0.0767 0.12964,-0.0767 0.0503,0 0.24077,0.0688 0.56886,0.20637 0.32808,0.13758 0.60325,0.20638 0.8255,0.20638"
         class="TimeSig"
         inkscape:connector-curvature="0" />
      <path
         style="stroke-width:0.26458332"
         id="path9850"
         d="m -183.66194,262.32085 c -0.51858,0 -0.98425,-0.0926 -1.397,-0.2831 -0.41275,-0.18786 -0.70643,-0.38629 -0.87577,-0.59267 -0.22754,-0.25929 -0.44979,-0.45773 -0.67468,-0.59531 -0.27517,-0.1905 -0.55828,-0.28575 -0.85196,-0.28575 -0.44715,0 -0.82021,0.13758 -1.11125,0.41539 -0.30957,0.25665 -0.48154,0.61119 -0.51594,1.05834 -0.0344,0.18785 -0.13758,0.2831 -0.30956,0.2831 -0.20902,0 -0.31221,-0.0953 -0.31221,-0.2831 0,-0.67204 0.1561,-1.27265 0.46831,-1.80711 0.30956,-0.55298 0.68792,-1.00806 1.13771,-1.36789 0.37571,-0.32809 0.87577,-0.72496 1.4949,-1.19063 0.10583,-0.0873 0.32543,-0.26723 0.65881,-0.54239 0.33602,-0.27517 0.61648,-0.508 0.84137,-0.6985 0.44715,-0.37836 0.83609,-0.87842 1.16152,-1.50019 0.30957,-0.62177 0.46302,-1.29117 0.46302,-2.01348 0,-0.88106 -0.14552,-1.63777 -0.43656,-2.27542 -0.30956,-0.61912 -0.78316,-0.92868 -1.42346,-0.92868 -0.39423,0 -0.71173,0.0847 -0.95514,0.25664 -0.25929,0.17198 -0.38629,0.40481 -0.38629,0.6985 0,0.24077 0.15345,0.5424 0.46302,0.90488 0.30956,0.35983 0.46566,0.66146 0.46566,0.90487 0,0.51594 -0.17991,0.9525 -0.54239,1.31498 -0.34396,0.34396 -0.76465,0.51594 -1.26471,0.51594 -0.51858,0 -0.95779,-0.17992 -1.31763,-0.53975 -0.34395,-0.37836 -0.51593,-0.80963 -0.51593,-1.29117 0,-0.98425 0.39423,-1.79387 1.18798,-2.43152 0.7911,-0.635 1.74625,-0.95514 2.86543,-0.95514 1.32821,0 2.48444,0.36247 3.46605,1.08479 0.9816,0.68791 1.47108,1.60073 1.47108,2.74108 0,0.77258 -0.13758,1.43669 -0.41275,1.98702 -0.25929,0.58738 -0.64823,1.04511 -1.16152,1.37319 -0.58738,0.37835 -1.09538,0.66939 -1.52665,0.87577 -0.60325,0.27517 -1.2065,0.53446 -1.8071,0.77787 -0.72496,0.29105 -1.28588,0.56886 -1.68275,0.82815 0.22754,-0.0529 0.46037,-0.0794 0.6985,-0.0794 0.79375,0 1.62189,0.25664 2.48179,0.77258 0.87842,0.51858 1.5584,0.77787 2.04258,0.77787 0.29104,0 0.52388,-0.0529 0.6985,-0.15875 0.16934,-0.10054 0.28311,-0.21166 0.33338,-0.33337 0.0688,-0.17198 0.12964,-0.29104 0.18256,-0.35983 0.0688,-0.10584 0.15346,-0.15611 0.25665,-0.15611 0.20637,0 0.30956,0.10319 0.30956,0.30956 0,0.48155 -0.34396,1.06627 -1.03188,1.75684 -0.67468,0.68791 -1.55045,1.03187 -2.63525,1.03187"
         class="TimeSig"
         inkscape:connector-curvature="0" />
    </g>
  </g>
</svg>
