<?xml version="1.0" encoding="UTF-8" standalone="no"?>
<!-- Created with Inkscape (http://www.inkscape.org/) -->

<svg
   xmlns:dc="http://purl.org/dc/elements/1.1/"
   xmlns:cc="http://creativecommons.org/ns#"
   xmlns:rdf="http://www.w3.org/1999/02/22-rdf-syntax-ns#"
   xmlns:svg="http://www.w3.org/2000/svg"
   xmlns="http://www.w3.org/2000/svg"
   xmlns:sodipodi="http://sodipodi.sourceforge.net/DTD/sodipodi-0.dtd"
   xmlns:inkscape="http://www.inkscape.org/namespaces/inkscape"
   width="117.475mm"
   height="118.00417mm"
   viewBox="0 0 117.475 118.00417"
   version="1.1"
   id="svg8"
   inkscape:version="0.92.4 (5da689c313, 2019-01-14)"
   sodipodi:docname="upload.svg">
  <defs
     id="defs2" />
  <sodipodi:namedview
     id="base"
     pagecolor="#ffffff"
     bordercolor="#666666"
     borderopacity="1.0"
     inkscape:pageopacity="0.0"
     inkscape:pageshadow="2"
     inkscape:zoom="0.35"
     inkscape:cx="-491.57135"
     inkscape:cy="534.14289"
     inkscape:document-units="mm"
     inkscape:current-layer="layer1"
     showgrid="false"
     inkscape:window-width="1920"
     inkscape:window-height="1017"
     inkscape:window-x="-8"
     inkscape:window-y="-8"
     inkscape:window-maximized="1" />
  <metadata
     id="metadata5">
    <rdf:RDF>
      <cc:Work
         rdf:about="">
        <dc:format>image/svg+xml</dc:format>
        <dc:type
           rdf:resource="http://purl.org/dc/dcmitype/StillImage" />
        <dc:title></dc:title>
      </cc:Work>
    </rdf:RDF>
  </metadata>
  <g
     inkscape:label="Layer 1"
     inkscape:groupmode="layer"
     id="layer1"
     transform="translate(-120.23421,-172.15446)">
    <path
       style="fill:#4a85c4;stroke-width:0.26458335"
       d="m 175.26754,288.41607 c -11.12076,-0.91153 -19.00744,-3.46278 -27.64896,-8.94413 -6.7779,-4.29926 -12.83234,-10.32783 -17.4336,-17.35914 -4.35339,-6.65253 -7.63896,-15.67092 -8.62717,-23.68021 -0.42067,-3.40947 -0.4241,-11.42137 -0.006,-14.81667 0.69475,-5.64658 2.69374,-12.39874 5.16982,-17.4625 2.94755,-6.02796 6.47529,-10.98007 11.23343,-15.76906 8.90601,-8.96376 20.8682,-14.86474 33.21179,-16.38348 3.3953,-0.41775 11.4072,-0.41432 14.81667,0.006 12.38336,1.52789 24.31199,7.41084 33.20725,16.37713 9.2429,9.31671 14.85377,20.71551 16.4228,33.36385 0.44248,3.56695 0.44248,10.98514 0,14.55209 -1.56656,12.62841 -7.2869,24.25556 -16.40608,33.34692 -8.98853,8.9611 -20.25727,14.63112 -32.29793,16.25114 -2.89304,0.38925 -9.58059,0.68664 -11.64167,0.51771 z m 9.86887,-19.5866 c 0.46572,-0.2349 1.17698,-0.73611 1.58058,-1.1138 1.5029,-1.40642 1.51514,-1.58385 1.51514,-21.97852 V 227.0763 l 7.47448,7.43734 c 6.20815,6.17732 7.65378,7.48645 8.53281,7.72719 1.33694,0.36615 1.55335,0.36391 2.86709,-0.0297 0.85738,-0.25688 1.9112,-1.17437 5.17895,-4.50899 2.25639,-2.30258 4.25636,-4.55237 4.44439,-4.99955 0.58073,-1.38116 0.4288,-2.89604 -0.42187,-4.20622 -0.42004,-0.64696 -8.54606,-8.93971 -18.05781,-18.42835 -16.71591,-16.6753 -17.33389,-17.25838 -18.48471,-17.44075 -0.65484,-0.10377 -1.25016,-0.17916 -1.32292,-0.16752 -0.0728,0.0116 -0.60854,0.0965 -1.19062,0.18868 -0.97639,0.15455 -2.39737,1.5033 -18.35242,17.41959 -9.51175,9.48864 -17.63776,17.78139 -18.05781,18.42835 -0.8452,1.30175 -1.00333,2.82659 -0.433,4.17524 0.42955,1.01576 7.44603,8.30706 8.71238,9.05363 1.09408,0.64501 3.03703,0.77341 4.31835,0.28539 0.44387,-0.16906 4.03009,-3.52892 8.13594,-7.62242 l 7.34218,-7.3201 v 18.43536 c 0,12.40636 0.0952,18.87908 0.29098,19.79216 0.3286,1.5322 1.45318,2.99962 2.72726,3.5587 0.60127,0.26385 2.34757,0.36477 6.58605,0.38063 4.81241,0.018 5.90809,-0.0492 6.61458,-0.40549 z"
       id="path3748"
       inkscape:connector-curvature="0" />
  </g>
</svg>
